<?xml version="1.0" standalone="no"?>
<!DOCTYPE svg PUBLIC "-//W3C//DTD SVG 20010904//EN"
 "http://www.w3.org/TR/2001/REC-SVG-20010904/DTD/svg10.dtd">
<svg version="1.0" xmlns="http://www.w3.org/2000/svg"
 width="421.000000pt" height="421.000000pt" viewBox="0 0 421.000000 421.000000"
 preserveAspectRatio="xMidYMid meet">
<metadata>
Created by potrace 1.14, written by Peter Selinger 2001-2017
</metadata>
<g transform="translate(0.000000,421.000000) scale(0.100000,-0.100000)"
fill="#000000" stroke="none">
<path d="M1900 3395 c-303 -67 -543 -262 -643 -520 -71 -182 -95 -366 -80
-600 6 -91 8 -180 4 -197 l-6 -31 -27 34 c-78 99 -118 126 -136 92 -16 -30
-23 -96 -13 -128 5 -16 10 -22 10 -13 2 28 25 26 53 -4 19 -21 29 -44 33 -83
4 -30 11 -55 15 -55 4 0 10 -16 13 -34 3 -19 13 -51 22 -70 20 -43 53 -50 176
-40 89 7 104 15 77 42 -7 7 -8 12 -2 12 9 0 6 71 -12 230 -8 78 -8 95 6 185
18 115 18 120 6 127 -6 5 0 8 14 8 14 0 49 9 78 20 53 20 156 27 221 14 42 -9
25 -30 -30 -39 -22 -4 -43 -13 -46 -21 -3 -8 -11 -14 -19 -14 -8 0 -14 -4 -14
-10 0 -5 -6 -10 -14 -10 -8 0 -21 -6 -28 -14 -8 -7 -29 -22 -47 -32 -65 -37
-76 -44 -69 -44 4 0 -2 -18 -13 -39 -22 -42 -22 -92 -1 -99 6 -2 12 4 12 13 0
25 36 88 67 116 42 40 87 59 135 58 l43 -1 -34 -8 c-133 -31 -164 -202 -50
-277 33 -21 47 -25 92 -21 86 7 137 65 137 156 0 49 -19 87 -60 119 -28 23 6
13 38 -10 58 -44 102 -122 102 -183 0 -19 5 -24 24 -24 13 0 29 6 35 14 22 26
25 119 6 195 -17 70 -35 97 -88 134 l-26 17 25 26 c24 23 25 27 11 47 -19 30
-119 55 -224 56 -66 1 -96 -4 -150 -24 -37 -14 -75 -33 -85 -42 -10 -9 -21
-13 -25 -10 -4 4 2 14 13 22 10 8 14 15 8 15 -7 0 -11 39 -11 117 1 82 -3 118
-11 121 -7 2 -12 23 -12 51 0 26 -5 52 -11 58 -14 14 8 50 36 56 89 20 1280
15 1377 -5 20 -5 58 -46 58 -62 0 -6 -7 -3 -14 7 -7 9 -19 17 -27 17 -9 0 -10
-3 -2 -11 11 -11 5 -101 -8 -109 -10 -7 -16 -259 -5 -257 5 1 11 -4 13 -10 7
-19 -19 -15 -47 7 -14 11 -31 20 -37 20 -7 0 -13 5 -13 12 0 6 -3 9 -6 5 -3
-3 -24 1 -46 9 -72 25 -272 11 -326 -23 -29 -18 -27 -63 4 -78 28 -14 20 -32
-21 -45 -26 -8 -39 -22 -58 -63 -35 -73 -48 -144 -36 -193 6 -21 11 -46 11
-54 0 -11 10 -16 33 -17 32 -1 33 1 40 46 7 48 27 88 67 133 77 87 245 92 331
10 31 -29 67 -92 67 -117 0 -8 5 -15 10 -15 6 0 10 7 10 16 0 8 8 23 17 32 16
16 16 17 0 20 -9 2 -17 10 -17 18 0 8 -4 14 -10 14 -5 0 -12 11 -16 25 -4 14
-8 24 -11 22 -2 -3 -15 5 -28 17 -13 12 -36 28 -52 36 -15 8 -30 17 -33 20
-20 22 -118 71 -152 77 l-43 6 35 15 c54 22 210 11 279 -20 l54 -25 4 -64 c2
-35 8 -84 13 -109 5 -29 5 -61 -1 -85 -5 -22 -10 -88 -9 -147 0 -59 -4 -109
-9 -113 -5 -3 -8 -15 -6 -27 3 -12 0 -25 -6 -29 -15 -9 179 -21 217 -13 33 6
59 44 70 102 4 18 11 35 15 38 5 3 9 19 9 35 0 40 22 89 53 118 l27 24 9 -24
c9 -23 10 -22 12 11 5 95 -9 141 -41 133 -25 -7 -106 -86 -115 -112 -3 -12
-10 -21 -15 -21 -14 0 -16 73 -6 200 16 228 -22 490 -96 654 -105 232 -304
399 -569 477 -97 28 -378 37 -479 14z m-183 -1151 c-3 -3 -12 -4 -19 -1 -8 3
-5 6 6 6 11 1 17 -2 13 -5z m-72 -94 c0 -18 -6 -26 -21 -28 -23 -3 -37 18 -27
44 10 25 48 13 48 -16z"/>
<path d="M2440 2203 c-37 -34 -43 -46 -48 -91 -6 -63 9 -102 55 -142 28 -25
42 -30 86 -30 146 0 211 170 103 270 -21 19 -40 25 -91 28 -62 4 -64 4 -105
-35z m65 -44 c7 -22 -7 -39 -33 -39 -16 0 -26 25 -18 45 8 23 44 18 51 -6z"/>
<path d="M1958 1780 c-17 -30 -17 -30 6 -30 23 0 36 17 36 46 0 24 -24 15 -42
-16z"/>
<path d="M2220 1793 c0 -29 16 -45 40 -41 l22 3 -22 28 c-25 31 -40 35 -40 10z"/>
<path d="M923 1443 c4 -115 12 -321 19 -458 l11 -250 -34 -46 c-70 -92 -159
-295 -159 -363 0 -23 2 -23 188 -29 244 -9 2055 -9 2290 0 l182 6 0 27 c0 15
-9 53 -20 86 -29 84 -118 264 -131 264 -8 0 -9 93 -5 318 5 319 0 345 -24 109
-10 -98 -15 -116 -26 -106 -10 8 -14 8 -14 0 0 -7 -28 -11 -80 -11 -79 0 -80
0 -80 25 l0 25 -120 0 c-100 0 -120 3 -120 15 0 11 -11 15 -40 15 -22 0 -40 5
-40 10 0 6 -18 10 -40 10 -29 0 -40 4 -40 15 0 12 -16 15 -80 15 -64 0 -80 3
-80 15 0 12 -16 15 -80 15 -47 0 -80 4 -80 10 0 6 -18 10 -40 10 -26 0 -51 8
-71 22 -20 15 -42 22 -69 21 -22 -1 -40 2 -40 8 0 5 -40 9 -90 9 -53 0 -90 4
-90 10 0 6 -18 10 -40 10 -29 0 -40 4 -40 15 0 11 -11 15 -40 15 -29 0 -40 -4
-40 -15 0 -22 -8 -19 -37 15 -24 29 -28 30 -110 30 l-85 0 -35 40 c-37 42 -53
50 -53 25 0 -11 -11 -15 -40 -15 -29 0 -40 4 -40 15 0 12 -16 15 -80 15 -47 0
-80 4 -80 10 0 6 -18 10 -40 10 -29 0 -40 4 -40 15 0 12 -15 15 -79 15 l-78 0
-6 38 c-4 20 -9 67 -13 105 -4 37 -11 67 -17 67 -7 0 -8 -69 -4 -207z m1164
-265 c-3 -8 -6 -5 -6 6 -1 11 2 17 5 13 3 -3 4 -12 1 -19z m105 6 c7 -6 -14
-64 -22 -64 -4 0 -15 -7 -26 -15 -18 -14 -17 -14 10 -5 21 8 38 8 58 -1 32
-13 35 -27 13 -70 -14 -27 -14 -33 1 -64 9 -19 20 -35 25 -35 11 0 -14 -52
-36 -73 -11 -12 -35 -15 -100 -13 -48 1 -89 6 -93 12 -42 62 -52 86 -53 127
-2 42 16 106 30 107 3 1 25 5 48 9 24 5 40 4 37 0 -3 -5 5 -9 18 -9 15 0 19 3
11 8 -16 10 -12 72 5 72 6 0 12 5 12 10 0 10 53 14 62 4z m42 -23 c3 -5 -1
-11 -9 -15 -15 -6 -29 7 -18 18 9 9 21 8 27 -3z m-207 -7 c-3 -3 -12 -4 -19
-1 -8 3 -5 6 6 6 11 1 17 -2 13 -5z m213 -34 c0 -5 -7 -7 -15 -4 -8 4 -15 8
-15 10 0 2 7 4 15 4 8 0 15 -4 15 -10z"/>
<path d="M3282 1590 c0 -14 2 -19 5 -12 2 6 2 18 0 25 -3 6 -5 1 -5 -13z"/>
<path d="M3268 1385 c-6 -49 -4 -64 8 -53 3 3 4 28 2 54 l-3 49 -7 -50z"/>
<path d="M2118 1243 c7 -3 16 -2 19 1 4 3 -2 6 -13 5 -11 0 -14 -3 -6 -6z"/>
<path d="M2166 1230 c5 -5 25 -13 44 -16 32 -7 34 -6 21 9 -7 9 -27 17 -44 17
-20 0 -28 -3 -21 -10z"/>
</g>
</svg>
